<svg width="301" height="337" viewBox="0 0 301 337" fill="none" xmlns="http://www.w3.org/2000/svg">
<path d="M132.031 210.75V263.094" stroke="#DCDCDC" stroke-width="7" stroke-miterlimit="10"/>
<path d="M54.6875 132.625V184.188" stroke="#DCDCDC" stroke-width="7" stroke-miterlimit="10"/>
<path d="M35.1562 162.313V214.656" stroke="#DCDCDC" stroke-width="7" stroke-miterlimit="10"/>
<path d="M246.875 136.531V188.094" stroke="#DCDCDC" stroke-width="7" stroke-miterlimit="10"/>
<path d="M266.406 126.375V177.938" stroke="#DCDCDC" stroke-width="7" stroke-miterlimit="10"/>
<path d="M246.875 211.531V195.906" stroke="#DCDCDC" stroke-width="7" stroke-miterlimit="10"/>
<path d="M200.781 254.5V222.469" stroke="#DCDCDC" stroke-width="7" stroke-miterlimit="10"/>
<path d="M54.6875 222.469V199.031" stroke="#DCDCDC" stroke-width="7" stroke-miterlimit="10"/>
<path d="M95.3125 248.25V210.75" stroke="#DCDCDC" stroke-width="7" stroke-miterlimit="10"/>
<path d="M166.406 210.75V263.094" stroke="#DCDCDC" stroke-width="7" stroke-miterlimit="10"/>
<path d="M149.219 222.469V274.812" stroke="#DCDCDC" stroke-width="7" stroke-miterlimit="10"/>
<path d="M175.781 202.937H122.656L132.031 188.094H167.188L175.781 202.937Z" fill="#939598"/>
<path d="M73.4375 195.906L122.656 177.938V109.188L94.5312 126.375C81.25 134.187 73.4375 149.031 73.4375 163.875V195.906Z" fill="#E6E7E8"/>
<path d="M225.781 195.906L176.562 177.938V109.188L204.687 126.375C217.969 134.187 225.781 149.031 225.781 163.875V195.906Z" fill="#E6E7E8"/>
<path d="M195.312 131.844C195.312 127.937 195.312 124.031 194.531 120.125L176.562 109.188V177.938L195.312 184.969V131.844Z" fill="#D1D3D4"/>
<path d="M103.125 131.844C103.125 127.937 103.125 124.031 103.906 120.125L121.875 109.188V177.938L103.125 184.188V131.844Z" fill="#D1D3D4"/>
<path d="M183.594 191.219H115.625V49.8125C115.625 33.4062 123.438 17.7813 135.938 7.625L142.187 2.9375C146.875 -0.1875 152.344 -0.1875 157.031 2.9375L164.062 8.40625C176.562 18.5625 184.375 33.4062 184.375 49.0312V191.219H183.594Z" fill="#E6E7E8"/>
<path d="M149.219 109.969C158.711 109.969 166.406 102.274 166.406 92.7813C166.406 83.2889 158.711 75.5938 149.219 75.5938C139.726 75.5938 132.031 83.2889 132.031 92.7813C132.031 102.274 139.726 109.969 149.219 109.969Z" fill="url(#paint0_linear_3_836)"/>
<path d="M149.219 109.969C158.711 109.969 166.406 102.274 166.406 92.7813C166.406 83.2889 158.711 75.5938 149.219 75.5938C139.726 75.5938 132.031 83.2889 132.031 92.7813C132.031 102.274 139.726 109.969 149.219 109.969Z" stroke="#939598" stroke-width="7" stroke-miterlimit="10"/>
<path d="M142 3L135.937 7.625C126.562 14.6563 119.531 25.5938 117.187 36.5313H182.031C178.906 24.8125 169.875 12.0312 160.5 5L157 2.5C153.094 -0.625 145.906 -0.125 142 3Z" fill="url(#paint1_linear_3_836)"/>
<path d="M300.781 325.5C300.781 318.469 295.312 312.219 287.5 312.219C285.156 312.219 282.812 313 281.25 313.781C278.125 305.188 271.875 298.156 263.281 294.25C262.5 277.062 248.438 263 230.469 263C215.625 263 203.906 272.375 199.219 285.656C196.875 281.75 192.969 279.406 188.281 279.406C183.594 279.406 179.688 281.75 177.344 285.656C173.438 279.406 167.188 275.5 159.375 275.5C153.906 275.5 148.438 277.844 144.531 280.969C139.844 272.375 130.469 266.125 119.531 266.125C104.688 266.125 92.1875 277.063 90.625 291.906C86.7187 290.344 82.8125 289.563 78.9062 289.563C75.7812 289.563 73.4375 290.344 70.3125 291.125C64.8437 285.656 56.25 281.75 46.875 281.75C31.25 281.75 18.75 292.688 15.625 306.75C7.03125 306.75 0 313.781 0 322.375C0 325.5 0.781251 328.625 2.34375 330.969H300C300 329.406 300.781 327.062 300.781 325.5Z" fill="#F1F2F2"/>
<path d="M287.5 314.656C285.156 314.656 282.812 315.437 281.25 316.219C278.125 307.625 271.875 300.594 263.281 296.688C262.5 279.5 248.437 265.438 230.469 265.438C215.625 265.438 203.906 274.813 199.219 288.094C196.875 284.188 192.969 281.844 188.281 281.844" stroke="#DCDCDC" stroke-width="7" stroke-miterlimit="10"/>
<path d="M145.312 284.969C140.625 276.375 131.25 270.125 120.313 270.125C105.469 270.125 92.9687 281.062 91.4062 295.906C87.5 294.344 83.5937 293.562 79.6875 293.562C76.5625 293.562 74.2187 294.344 71.0937 295.125C64.8437 288.094 56.25 284.187 46.875 284.187C31.25 284.187 18.75 295.125 15.625 309.188" stroke="#DCDCDC" stroke-width="7" stroke-miterlimit="10"/>
<path d="M1.5625 333.406H299.219" stroke="#DCDCDC" stroke-width="7" stroke-miterlimit="10"/>
<defs>
<linearGradient id="paint0_linear_3_836" x1="149.219" y1="75.5938" x2="149.219" y2="109.969" gradientUnits="userSpaceOnUse">
<stop stop-color="#62FFC8"/>
<stop offset="1" stop-color="#6AFF9F"/>
</linearGradient>
<linearGradient id="paint1_linear_3_836" x1="149.609" y1="0.59375" x2="149.609" y2="36.5313" gradientUnits="userSpaceOnUse">
<stop stop-color="#62FFC8"/>
<stop offset="1" stop-color="#6AFF9F"/>
</linearGradient>
</defs>
</svg>
